<?xml version="1.0" encoding="UTF-8" standalone="no"?>
<!DOCTYPE svg PUBLIC "-//W3C//DTD SVG 1.1//EN" "http://www.w3.org/Graphics/SVG/1.1/DTD/svg11.dtd">
<svg width="100%" height="100%" viewBox="0 0 529 173" version="1.1" xmlns="http://www.w3.org/2000/svg" xmlns:xlink="http://www.w3.org/1999/xlink" xml:space="preserve" xmlns:serif="http://www.serif.com/" style="fill-rule:evenodd;clip-rule:evenodd;stroke-linejoin:round;stroke-miterlimit:2;">
    <g transform="matrix(1,0,0,1,-22.5188,-64.4742)">
        <rect id="Artboard2" x="22.519" y="64.474" width="528.7" height="173" style="fill:none;"/>
        <g id="Artboard21" serif:id="Artboard2">
            <g id="Mighty-1-Logo" serif:id="Mighty 1 Logo" transform="matrix(1,0,0,1,-10.0812,-189.126)">
                <g id="Beeldmerk">
                    <g id="M">
                        <path d="M125.9,328.4L138.8,328.4L125.2,377.1L113,377.1L95.6,315.8L95.2,315.8L92.4,377.1L76.1,377.1L81.1,299.3L104.5,299.3L118.7,353.1L119.4,353.1L125.9,328.4ZM157,299.3L133.5,299.3L129.2,315.8L142.9,315.8L145.7,377.1L162,377.1L157,299.3Z" style="fill-rule:nonzero;"/>
                    </g>
                    <g id="Circle">
                        <g>
                            <clipPath id="_clip1">
                                <path d="M119.1,426.6C71.4,426.6 32.6,387.8 32.6,340.1C32.6,292.4 71.4,253.6 119.1,253.6C166.8,253.6 205.6,292.4 205.6,340.1C205.6,387.8 166.7,426.6 119.1,426.6ZM119.1,272.7C81.9,272.7 51.6,303 51.6,340.2C51.6,377.4 81.9,407.7 119.1,407.7C156.3,407.7 186.6,377.4 186.6,340.2C186.6,303 156.3,272.7 119.1,272.7Z"/>
                            </clipPath>
                            <g clip-path="url(#_clip1)">
                                <rect x="3.3" y="203" width="228.1" height="241.6" style="fill:rgb(255,209,0);"/>
                            </g>
                        </g>
                    </g>
                </g>
                <g id="Mighty-1" serif:id="Mighty 1">
                    <path d="M545.5,315L545.5,324.3L552.8,320.7L552.2,357.8L561.3,357.8L561.1,310.8L553,310.8L545.5,315ZM308.3,310.8L298.8,310.8L298.8,357.8L308.3,357.8L308.3,310.8ZM365.1,329.9L348.2,329.9L348.2,339.5L355.9,339.5L355.9,347.1C355,347.6 353.8,348.2 352.3,348.7C350.8,349.2 349,349.5 346.9,349.5C344.9,349.5 343,349.1 341.4,348.4C339.8,347.6 338.3,346.6 337.2,345.2C336,343.8 335.1,342.3 334.5,340.4C333.9,338.6 333.6,336.5 333.6,334.3C333.6,332.1 333.9,330.1 334.5,328.3C335.1,326.4 336,324.8 337.2,323.5C338.4,322.2 339.8,321.1 341.4,320.3C343,319.5 344.9,319.2 346.9,319.2C349.3,319.2 351.4,319.6 353,320.3C354.6,321.1 356.1,322.2 357.4,323.6L364.1,315.6C361.9,313.4 359.4,311.8 356.5,310.9C353.6,310 350.4,309.5 347,309.5C343.6,309.5 340.5,310.1 337.7,311.2C334.9,312.3 332.4,314 330.3,316.1C328.2,318.2 326.6,320.8 325.5,323.9C324.3,327 323.8,330.4 323.8,334.1C323.8,337.9 324.4,341.3 325.5,344.3C326.7,347.4 328.3,350 330.3,352.1C332.4,354.3 334.8,355.9 337.7,357.1C340.5,358.2 343.6,358.8 347,358.8C350.2,358.8 353.3,358.4 356.3,357.7C359.3,357 362.3,355.8 365.1,354.2L365.1,329.9ZM420,310.8L410.5,310.8L410.5,328.3L392.1,328.3L392.1,310.8L382.6,310.8L382.6,357.8L392.1,357.8L392.1,337.5L410.5,337.5L410.5,357.8L420,357.8L420,310.8ZM468,310.8L433.9,310.8L433.9,320L446.2,320L446.2,357.9L455.7,357.9L455.7,320L468,320L468,310.8ZM520,310.8L508.7,310.8L499,328.4L489.9,310.8L478.1,310.8L494.3,337.8L494.3,357.9L503.8,357.9L503.8,337.8L520,310.8ZM259.8,328.4L267.6,328.4L259.3,357.9L251.9,357.9L241.4,320.8L241.2,320.8L239.5,357.9L229.6,357.9L232.6,310.8L246.8,310.8L255.4,343.4L255.8,343.4L259.8,328.4ZM278.6,310.8L264.4,310.8L261.8,320.8L270.1,320.8L271.8,357.9L281.7,357.9L278.6,310.8Z" style="fill-rule:nonzero;"/>
                </g>
            </g>
        </g>
    </g>
</svg>
